<?xml version="1.0" encoding="UTF-8"?>
<svg version="1.1" xmlns="http://www.w3.org/2000/svg" width="65" height="65">
<path d="M0 0 C5.23872588 2.43226559 9.39841957 6.79683915 12 12 C12.48887732 17.80241278 12.85545438 23.15748286 10.375 28.5 C7.24889687 31.79063488 4.10260127 34.94869937 0 37 C-2.39618862 36.99420511 -4.79235447 36.94593225 -7.1875 36.875 C-12.91657328 36.81481498 -17.11318684 36.84393317 -22 40 C-23.82912978 41.83312351 -25.59332547 43.71589447 -27.35546875 45.61328125 C-29 47 -29 47 -31.9375 46.9375 C-32.618125 46.628125 -33.29875 46.31875 -34 46 C-34.73828125 43.73828125 -34.73828125 43.73828125 -35 41 C-33.41796875 39.04296875 -33.41796875 39.04296875 -31.1875 37.1875 C-27.06019761 33.31950457 -25.37807951 30.64210955 -25 25 C-25.00269363 22.95822882 -25.02469587 20.91642295 -25.0625 18.875 C-25.12288212 14.06858289 -24.94188145 10.98577487 -22 7 C-14.95013561 0.09700779 -9.92429783 -0.85929896 0 0 Z M-18.4375 9.765625 C-20.79421708 13.92261208 -21.53826999 17.41233244 -20.60546875 22.11328125 C-19.18594837 26.53668991 -17.04538282 29.24635192 -13.3125 31.9375 C-7.56818289 33.78001681 -2.9734444 32.9867222 2.375 30.3125 C5.43899501 27.6132663 6.74968613 25.89803736 8 22 C8.25570498 16.0655135 7.05612738 11.48308815 3 7 C-4.59548454 2.85700843 -12.56800877 2.5563586 -18.4375 9.765625 Z " fill="#903BEE" transform="translate(44,0)"/>
<path d="M0 0 C2.64 0 5.28 0 8 0 C8 7.59 8 15.18 8 23 C5.36 23 2.72 23 0 23 C0 15.41 0 7.82 0 0 Z " fill="#410083" transform="translate(22,42)"/>
<path d="M0 0 C2.0625 0.4375 2.0625 0.4375 4 1 C4.33 2.65 4.66 4.3 5 6 C6.98 6 8.96 6 11 6 C11 6.99 11 7.98 11 9 C8.69 9.33 6.38 9.66 4 10 C4.99 13.96 5.98 17.92 7 22 C5.68 22 4.36 22 3 22 C2.34 21.34 1.68 20.68 1 20 C0.34 20.99 -0.32 21.98 -1 23 C-1.99 22.67 -2.98 22.34 -4 22 C-3.01 18.04 -2.02 14.08 -1 10 C-3.31 9.67 -5.62 9.34 -8 9 C-8 8.01 -8 7.02 -8 6 C-6.02 6 -4.04 6 -2 6 C-1.855625 5.195625 -1.71125 4.39125 -1.5625 3.5625 C-1 1 -1 1 0 0 Z " fill="#410082" transform="translate(36,7)"/>
<path d="M0 0 C2.31 0 4.62 0 7 0 C7 8.25 7 16.5 7 25 C4.69 25 2.38 25 0 25 C0 16.75 0 8.5 0 0 Z " fill="#420082" transform="translate(49,40)"/>
<path d="M0 0 C2.31 0 4.62 0 7 0 C7 5.94 7 11.88 7 18 C4.36 18 1.72 18 -1 18 C-1.02684312 15.18743719 -1.04676188 12.37512759 -1.0625 9.5625 C-1.07087891 8.76005859 -1.07925781 7.95761719 -1.08789062 7.13085938 C-1.0965143 5.08704779 -1.0522815 3.04316098 -1 1 C-0.67 0.67 -0.34 0.34 0 0 Z " fill="#410082" transform="translate(36,47)"/>
<path d="M0 0 C2.31 0 4.62 0 7 0 C7 3.63 7 7.26 7 11 C4.69 11 2.38 11 0 11 C0 7.37 0 3.74 0 0 Z " fill="#410082" transform="translate(9,54)"/>
</svg>
